PathFileType	4	(X/Y/Z)	C:/Users/opensim2020/Desktop/walking_exp_matlab/subject01_walking05_straight_03.trc																																																																																																																															
DataRate	CameraRate	NumFrames	NumMarkers	Units	OrigDataRate	OrigDataStartFrame	OrigNumFrames																																																																																																																											
100	100	7	43	mm	100	2106	223																																																																																																																											
Frame#	Time	LFHD			RFHD			LBHD			RBHD			C7			T10			CLAV			STRN			RBAK			LSHO			LUPA			LELB			LFRM			LWRA			LWRB			LFIN			RSHO			RUPA			RELB			RFRM			RWRA			RWRB			RFIN			LASI			RASI			LPSI			RPSI			LTHI			LKNE			LTIB			LANK			LHEE			LTOE			RTHI			RKNE			RTIB			RANK			RHEE			RTOE			*39			*40			*41			*42		
		X1	Y1	Z1	X2	Y2	Z2	X3	Y3	Z3	X4	Y4	Z4	X5	Y5	Z5	X6	Y6	Z6	X7	Y7	Z7	X8	Y8	Z8	X9	Y9	Z9	X10	Y10	Z10	X11	Y11	Z11	X12	Y12	Z12	X13	Y13	Z13	X14	Y14	Z14	X15	Y15	Z15	X16	Y16	Z16	X17	Y17	Z17	X18	Y18	Z18	X19	Y19	Z19	X20	Y20	Z20	X21	Y21	Z21	X22	Y22	Z22	X23	Y23	Z23	X24	Y24	Z24	X25	Y25	Z25	X26	Y26	Z26	X27	Y27	Z27	X28	Y28	Z28	X29	Y29	Z29	X30	Y30	Z30	X31	Y31	Z31	X32	Y32	Z32	X33	Y33	Z33	X34	Y34	Z34	X35	Y35	Z35	X36	Y36	Z36	X37	Y37	Z37	X38	Y38	Z38	X39	Y39	Z39	X40	Y40	Z40	X41	Y41	Z41	X42	Y42	Z42	X43	Y43	Z43
																																																																																																																																		
28	0.27	-867.20367	1668.02563	-1112.12122	-849.20032	1679.00244	-999.51617	-973.50848	1602.25244	-1097.38379	-957.453	1611.57495	-977.86749	-989.15619	1424.60217	-1054.36707	-1026.64636	1133.3324	-1043.80688	-844.33728	1359.20874	-1056.34656	-801.57892	1203.11755	-1064.80017	-1041.39673	1230.37659	-975.65033	-913.14148	1387.12476	-1214.37634	-938.89618	1210.58862	-1307.08264	-935.53156	1058.43823	-1328.65051	-851.18115	983.99103	-1369.36707	-721.49438	935.03986	-1377.13684	-766.95294	898.03589	-1390.34155	-692.85901	871.21765	-1418.94812	-907.07941	1385.71082	-903.35413	-989.64856	1194.48279	-807.03876	-1005.96796	1071.83057	-805.81763	-1005.66846	953.77191	-769.04523	-947.89313	822.04968	-774.21082	-995.84509	834.50122	-741.35022	-978.72003	748.48193	-740.32343	-866.328	918.47687	-1157.03564	-846.79047	931.31549	-942.64221	-1046.58362	941.06946	-1087.76184	-1032.27295	949.15997	-943.16998	-932.32794	592.87073	-1230.06458	-964.73816	462.5311	-1233.52075	-1113.73303	345.89014	-1238.82471	-1257.5835	176.20921	-1202.31824	-1293.08899	178.49112	-1139.21851	-1197.28638	41.9693	-1233.8739	-863.62903	602.87695	-877.17828	-828.96777	448.86493	-906.73169	-858.50574	274.05411	-903.37091	-852.41998	69.90627	-957.18719	-895.25043	30.4278	-1011.28882	-710.08844	34.56737	-952.13629	-868.82684	1709.09753	-1021.59766	1973.20398	1023.35675	-3101.82764	2012.5282	1022.00452	-3140.62573	NaN	NaN	NaN
29	0.28	-860.04254	1669.01111	-1109.60681	-842.11566	1680.07959	-996.97968	-966.02954	1602.79834	-1094.81519	-949.90076	1612.17578	-975.27966	-981.01483	1425.57336	-1051.84961	-1018.48206	1134.22095	-1041.65186	-836.12579	1360.15564	-1054.13892	-793.3739	1203.97339	-1062.42261	-1033.07092	1231.35156	-972.7981	-904.99341	1387.89807	-1211.96155	-931.58765	1211.2395	-1304.26379	-928.95819	1058.86462	-1324.84082	-845.82764	982.75269	-1365.29626	-717.2002	931.10577	-1372.1886	-763.26233	894.97119	-1385.63367	-689.1709	866.69104	-1413.40833	-899.00098	1386.60315	-900.88049	-980.02301	1194.91394	-804.276	-995.83447	1071.84277	-803.23969	-993.52216	953.52954	-766.73883	-933.15479	822.91052	-772.67426	-980.88702	834.18475	-739.47906	-962.31152	748.67242	-739.00513	-858.31036	919.28149	-1155.08679	-839.42493	931.84521	-940.69257	-1038.85413	941.5683	-1086.39844	-1024.93384	950.28546	-941.75433	-917.42908	592.67059	-1228.69922	-946.96552	462.02673	-1232.46155	-1096.91406	347.90247	-1238.65808	-1244.64636	183.30052	-1200.94543	-1280.81921	186.41727	-1137.81665	-1188.68945	46.84782	-1233.63757	-859.66034	603.28662	-875.83063	-826.74896	448.49875	-905.20392	-857.47192	273.88293	-902.54883	-852.34747	69.75996	-956.95264	-895.05682	30.11495	-1011.24677	-710.06342	34.34919	-951.8111	-861.66895	1710.11475	-1019.10486	1973.07056	1023.32538	-3101.9082	2012.60315	1022.19128	-3140.45044	NaN	NaN	NaN
30	0.29	-852.84015	1669.99243	-1107.22815	-834.67969	1681.21851	-994.51215	-958.54077	1603.33887	-1092.31104	-942.34351	1612.77747	-972.76453	-972.55963	1426.4082	-1049.38843	-1010.47321	1135.19641	-1039.54199	-827.8761	1360.97974	-1051.96362	-785.31262	1204.75842	-1060.15735	-1024.84546	1232.3252	-970.2038	-897.07257	1388.65356	-1209.89368	-924.52533	1211.8031	-1301.36206	-922.37994	1059.32495	-1321.20166	-840.7049	981.40332	-1360.87878	-713.19342	927.01666	-1367.27869	-759.85376	891.83167	-1380.90076	-686.27606	861.56915	-1407.75305	-889.99023	1387.24524	-898.58832	-970.29993	1195.25024	-801.44244	-985.41724	1071.71631	-800.52057	-980.91632	953.27643	-764.3476	-918.2204	823.7854	-771.14185	-965.62109	834.00903	-737.7829	-946.05157	749.10767	-737.61627	-850.35272	920.17529	-1153.37146	-832.19055	932.35364	-938.83514	-1031.30298	941.95569	-1085.11743	-1017.76007	951.086	-940.60608	-902.77594	592.82458	-1227.20313	-929.17334	461.78317	-1231.02844	-1079.66248	349.59247	-1238.20178	-1231.08044	190.0883	-1199.05847	-1267.90869	193.78384	-1136.11597	-1178.72742	52.22212	-1233.12341	-855.42371	603.5755	-874.1925	-824.71887	448.21332	-903.74316	-856.79041	273.78668	-901.73944	-852.73474	69.81403	-956.76495	-895.11847	30.43072	-1010.89227	-709.98773	34.14658	-951.57556	-854.52155	1711.16418	-1016.61169	1973.20605	1023.43567	-3101.8103	2012.57751	1022.01343	-3140.65698	NaN	NaN	NaN
31	0.3	-845.60809	1670.89746	-1104.86108	-827.53418	1682.16309	-992.32684	-951.08746	1603.86304	-1089.89893	-934.76483	1613.28516	-970.36316	-964.29468	1427.30444	-1047.05139	-1002.65405	1136.1958	-1037.47449	-820.01953	1361.72437	-1049.86194	-777.31445	1205.40198	-1058.0769	-1016.8172	1233.30298	-967.76807	-888.93634	1389.47192	-1207.77161	-917.59351	1212.26208	-1298.41162	-915.92346	1059.78198	-1317.7489	-835.65405	980.10645	-1356.69189	-709.46558	922.69299	-1362.46558	-756.91803	888.57172	-1376.06738	-683.84491	856.44379	-1402.29675	-881.92346	1387.99438	-896.38928	-960.29578	1195.47729	-798.5907	-974.89478	1071.65588	-797.58942	-968.21875	953.026	-761.84009	-903.08325	824.74005	-769.534	-950.23364	833.98645	-735.78107	-928.66962	749.35901	-736.00562	-842.60217	920.95325	-1151.55908	-825.20007	932.76288	-936.86249	-1023.82471	942.19208	-1083.98792	-1010.8457	951.72009	-939.45459	-888.29889	593.258	-1225.69324	-911.58282	461.82281	-1229.58276	-1062.11682	350.96701	-1237.40991	-1216.88293	196.02536	-1197.12061	-1254.3999	200.02266	-1134.28394	-1166.29138	57.48206	-1231.59961	-851.72797	603.56354	-873.09094	-822.53345	447.9585	-902.50421	-856.03162	273.702	-900.95001	-852.71735	69.71085	-956.64819	-895.62439	30.84741	-1010.7066	-709.93024	33.9076	-951.35175	-847.4267	1712.10522	-1014.29669	1973.02966	1023.86469	-3102.04028	2012.53735	1022.06482	-3140.57861	NaN	NaN	NaN
32	0.31	-838.38287	1671.74744	-1102.63794	-820.1377	1683.09143	-990.15649	-943.59497	1604.34473	-1087.56067	-927.13214	1613.84705	-968.00641	-956.32056	1428.31592	-1044.79346	-994.89343	1137.11621	-1035.52039	-811.7782	1362.48132	-1047.38379	-769.43555	1205.97327	-1056.07471	-1008.91974	1234.32483	-965.47974	-880.96954	1390.33215	-1205.63586	-910.77484	1212.71448	-1295.51013	-909.48602	1060.3291	-1314.35071	-830.86279	978.94073	-1352.59229	-706.0694	918.4964	-1357.56201	-754.26855	885.12683	-1371.1178	-681.93359	851.32123	-1396.9115	-872.94006	1388.51746	-894.37622	-950.11157	1195.62561	-795.75171	-964.06293	1071.50781	-794.62811	-955.21338	952.79089	-759.32294	-887.32672	825.78693	-767.72839	-935.31195	834.07813	-733.57935	-911.33929	749.96832	-734.34796	-834.79565	921.841	-1149.87512	-818.33368	933.09338	-934.94116	-1016.34601	942.41486	-1082.90747	-1004.12921	952.16113	-938.42224	-873.93365	594.04926	-1224.34656	-894.1073	462.23599	-1227.94348	-1044.48413	352.32895	-1236.3833	-1201.9729	200.95787	-1195.07007	-1240.48022	205.16705	-1132.4541	-1152.0459	62.51491	-1229.59448	-848.02985	603.5448	-872.58545	-820.1153	447.77332	-901.30469	-854.92401	273.64081	-900.32764	-852.50024	69.59373	-956.54254	-896.15076	31.22471	-1010.61755	-709.86212	33.81671	-951.25195	-840.22626	1712.90723	-1012.08154	1973.07922	1023.47083	-3101.83325	2012.48157	1021.99554	-3140.65503	NaN	NaN	NaN
33	0.32	-831.12463	1672.59216	-1100.49902	-812.72998	1683.93164	-988.06891	-936.10199	1604.82947	-1085.3114	-919.54968	1614.33472	-965.76654	-948.19293	1429.14941	-1042.599	-987.37854	1138.15808	-1033.54663	-803.76672	1363.06372	-1045.67712	-761.65167	1206.47217	-1054.24988	-1001.0755	1235.37231	-963.29022	-873.13409	1391.26599	-1203.80176	-903.91315	1213.20288	-1292.69702	-903.17883	1060.87048	-1310.9967	-826.15442	977.49188	-1348.47766	-702.95923	914.20154	-1352.77563	-752.06256	881.93805	-1366.42847	-680.45599	846.12634	-1391.48071	-864.95508	1389.1582	-892.4198	-939.65399	1195.75024	-792.97308	-953.10022	1071.42749	-791.58368	-941.87573	952.67096	-756.72461	-872.21375	826.90967	-766.25739	-919.58124	834.17114	-731.56207	-893.91241	750.81604	-732.54419	-827.02429	922.7608	-1148.16321	-811.49969	933.4021	-932.89954	-1008.9129	942.6853	-1081.94727	-997.50336	952.30444	-937.49475	-859.6554	595.05402	-1222.96326	-876.66553	462.9545	-1226.12891	-1026.77576	353.61111	-1234.8501	-1186.3324	205.07062	-1192.77759	-1225.7074	209.52309	-1130.53296	-1135.83997	66.28065	-1226.52124	-844.02582	603.6275	-871.53778	-818.16681	447.6207	-900.58789	-853.82916	273.68469	-900.01453	-852.4873	69.61451	-956.56726	-895.54254	30.72643	-1010.74304	-709.89398	33.92465	-950.9231	-833.0437	1713.6709	-1009.93365	1973.08386	1023.33289	-3102.03369	2012.50684	1022.04187	-3140.65918	NaN	NaN	NaN
34	0.33	-823.84796	1673.34424	-1098.44446	-805.45032	1684.66895	-986.03278	-928.60956	1605.2489	-1083.17529	-911.87903	1614.79712	-963.66486	-940.19415	1429.93689	-1040.54419	-979.77753	1139.01489	-1031.76477	-795.88196	1363.58936	-1043.59216	-754.00647	1206.88672	-1052.41821	-993.36047	1236.43469	-961.13446	-865.12054	1392.20227	-1201.97131	-897.05084	1213.76819	-1290.09583	-897.07709	1061.39221	-1307.67053	-821.79419	976.20752	-1344.41907	-700.22382	909.93341	-1348.07275	-750.10333	878.72284	-1361.58325	-679.4375	841.36383	-1386.27698	-856.13214	1389.56555	-890.57922	-929.13586	1195.89307	-790.33069	-941.97882	1071.37744	-788.57825	-928.37408	952.6759	-754.1554	-856.5307	828.23175	-764.66693	-903.00867	834.50464	-729.53046	-876.08417	751.86212	-730.64209	-819.15881	923.73761	-1146.42944	-804.84039	933.63812	-930.84735	-1001.4436	942.99146	-1081.0863	-991.00458	952.31982	-936.6983	-845.54395	596.34601	-1221.68713	-859.2262	464.073	-1224.27271	-1009.0481	355.04514	-1232.99622	-1169.79846	208.26851	-1190.44189	-1210.18042	212.67657	-1128.46899	-1118.83936	70.03538	-1223.29626	-840.24023	603.38464	-870.7663	-815.36359	447.32825	-899.92548	-852.86804	273.7298	-899.76379	-852.5799	69.66138	-956.65796	-895.52222	30.81749	-1010.83807	-709.93298	33.82793	-950.84155	-825.7345	1714.3324	-1007.92358	1973.17419	1023.24207	-3101.85547	2012.5719	1022.09601	-3140.58936	NaN	NaN	NaN
